<svg xmlns="http://www.w3.org/2000/svg" xmlns:xlink="http://www.w3.org/1999/xlink" width="330.256" height="280.09" viewBox="0 0 330.256 200.09">
  <defs>
    <linearGradient id="a" x1="-0.049" y1="0.5" x2="1.171" y2="0.5" gradientUnits="objectBoundingBox">
      <stop offset="0" stop-color="#9261ff"/>
      <stop offset="0.393" stop-color="#f64f4b"/>
      <stop offset="0.738" stop-color="#edd05a"/>
      <stop offset="1" stop-color="#fff4a2"/>
    </linearGradient>
    <linearGradient id="b" x1="-2.457" y1="0.5" x2="4.114" y2="0.5" xlink:href="#a"/>
  </defs>
<!--White background to make it not see-through-->
  <g transform="translate(443 7615)">
    <g transform="translate(-425 -7615)">
      <path d="M627.13,399.307a27.194,27.194,0,0,0-18.014,6.8h0l-16.244-9.026h0a27.7,27.7,0,0,0,.4-4.7,27.315,27.315,0,0,0-45.285-20.6l-13.879-8.013a27.055,27.055,0,0,0,.487-5.135,27.335,27.335,0,1,0-54.182,5.135l-13.873,8.013a27.328,27.328,0,0,0-44.887,25.244h0L405.508,406a27.337,27.337,0,1,0-.135,40.875l16.314,9.206h0A27.325,27.325,0,0,0,466.9,481.19l13.513,7.8a27.335,27.335,0,1,0,53.7,0l13.52-7.8a27.332,27.332,0,0,0,45.207-25.155h0l16.045-9.058h0a27.328,27.328,0,1,0,18.244-47.669Zm0,38.643a11.375,11.375,0,0,1-1.942-.167h-.006a11.311,11.311,0,0,1,.673-22.38,12,12,0,0,1,1.275-.07,11.321,11.321,0,0,1,10.212,6.455h0a11.29,11.29,0,0,1,.327,8.949h0a11.315,11.315,0,0,1-10.539,7.212ZM565.94,472.214a11.309,11.309,0,0,1-10.026-16.539,10.951,10.951,0,0,1,1.051-1.641,11.279,11.279,0,0,1,8.975-4.436,11.816,11.816,0,0,1,1.583.109h0a11.328,11.328,0,0,1,9.725,11.2,11.149,11.149,0,0,1-.91,4.436h0a11.315,11.315,0,0,1-10.4,6.872Zm-1.66-91.03a10.935,10.935,0,0,1,1.66-.122,11.318,11.318,0,0,1,10.366,6.808h0a11.121,11.121,0,0,1,.942,4.506,11.336,11.336,0,0,1-9.648,11.186h0a10.868,10.868,0,0,1-1.659.121,11.312,11.312,0,0,1-1.661-22.5Zm-57.016-33.867a11.312,11.312,0,0,1,1.475,22.527,11.33,11.33,0,0,1-2.948,0,11.312,11.312,0,0,1,1.475-22.527Zm-56.33,124.654a11.309,11.309,0,1,1-3.994-22.251,10.784,10.784,0,0,1,1.654-.121,11.283,11.283,0,0,1,8.975,4.443,11.455,11.455,0,0,1,1.051,1.635,11.31,11.31,0,0,1-7.686,16.3Zm8.968-79.594a11.213,11.213,0,0,1-.936,4.5,11.392,11.392,0,0,1-10.372,6.808,11.907,11.907,0,0,1-1.737-.128,11.347,11.347,0,0,1-9.571-11.18,11.207,11.207,0,0,1,.968-4.571,11.319,11.319,0,0,1,10.34-6.744,10.857,10.857,0,0,1,1.66.122,11.335,11.335,0,0,1,9.648,11.193Zm-82.992,38.437a11.274,11.274,0,0,1,.026-8.936,11.32,11.32,0,0,1,10.372-6.808,10.937,10.937,0,0,1,1.659.121h0a11.309,11.309,0,0,1-.077,22.386h0a11.708,11.708,0,0,1-1.583.109A11.315,11.315,0,0,1,376.912,430.815Zm37.3.437h0a27.178,27.178,0,0,0,.436-4.872,27.7,27.7,0,0,0-.4-4.7h0l16.109-8.955h0a27.4,27.4,0,0,0,9.263,5.475v16.885a27.145,27.145,0,0,0-9.122,5.353h0l-16.282-9.186Zm93.05,74.189a11.312,11.312,0,0,1-1.475-22.527,11.333,11.333,0,0,1,2.948,0,11.312,11.312,0,0,1-1.475,22.527Zm17.866-31.989a27.292,27.292,0,0,0-35.733,0l-13.847-8a27.352,27.352,0,0,0-17.982-30.367V418.2a27.382,27.382,0,0,0,18.36-25.822,27.021,27.021,0,0,0-.468-5.026l13.937-8.046a27.293,27.293,0,0,0,35.733,0l13.943,8.046a27.023,27.023,0,0,0-.468,5.026,27.382,27.382,0,0,0,18.36,25.822v16.885a27.353,27.353,0,0,0-17.982,30.367l-13.853,8Zm58.875-33.041a27.343,27.343,0,0,0-9.09-5.327V418.2a27.39,27.39,0,0,0,9.225-5.442l16.1,8.949h0a27.282,27.282,0,0,0-.448,4.936,27,27,0,0,0,.4,4.635h0l-16.186,9.135Z" transform="translate(-359.974 -331.291)" fill="url(#a)"/>
      <path d="M582.849,442.164A27.335,27.335,0,1,0,610.184,469.5,27.367,27.367,0,0,0,582.849,442.164Zm0,38.643A11.308,11.308,0,1,1,594.158,469.5,11.319,11.319,0,0,1,582.849,480.807Z" transform="translate(-435.559 -374.148)" fill="url(#b)"/>
    </g>
  </g>
</svg>
